<svg width="42" height="42" viewBox="0 0 42 42" fill="none" xmlns="http://www.w3.org/2000/svg">
<path d="M35.1979 35.9476C35.1838 35.8334 35.125 35.7299 35.0343 35.6592C33.7609 34.6635 31.5943 33.7901 28.5932 33.0592C28.5567 32.4801 28.0447 31.6715 27.0326 30.5934C25.9652 29.4575 24.607 28.7772 23.5149 28.2299L23.5055 28.2252C22.8206 27.8827 22.1744 27.559 21.8555 27.2294C21.8437 27.2177 21.8331 27.2059 21.8225 27.1953C22.5381 27.0223 23.2548 26.8045 23.9586 26.5491C24.4022 26.3867 24.8366 26.2113 25.2485 26.0265C27.6941 24.9319 29.6336 23.4312 30.568 21.9093C32.7511 18.3535 32.7064 15.4616 32.6829 13.9079V13.8926C32.6676 13.0228 32.6464 12.3037 32.6323 11.8364L32.6241 11.6233C33.4726 11.4915 35.0049 11.0725 36.1688 10.7359C36.7255 10.5746 37.1775 10.4381 37.3705 10.3804L37.4387 10.3592C37.567 10.3204 37.6717 10.2227 37.72 10.0967C37.7671 9.9708 37.7541 9.83192 37.6823 9.71539C36.6726 8.08287 34.9496 7.11653 34.347 6.81639C33.8374 3.67493 28.4896 0.245097 26.9291 0.00498469C26.7608 -0.0209097 26.5925 0.0555994 26.4995 0.199196C26.4065 0.342792 26.4077 0.528762 26.5019 0.671181C26.829 1.17024 27.0856 1.61868 27.2645 2.00239C27.2927 2.06124 27.3186 2.12009 27.3433 2.17659C26.9561 1.91293 26.5325 1.68812 26.0782 1.50568C24.9307 1.04547 23.9774 1.01487 23.9386 1.01369C23.735 1.00663 23.549 1.1467 23.5019 1.34915C23.456 1.55042 23.5585 1.75757 23.7456 1.84232C24.314 2.10008 24.7636 2.48379 25.0837 2.98402C25.452 3.55958 25.5921 4.20224 25.6392 4.70718C25.4121 4.58947 25.1496 4.5165 24.8648 4.49414C24.6388 4.4753 24.4035 4.48943 24.2022 4.53298C24.0221 4.57182 23.8868 4.7213 23.8644 4.90491C23.8421 5.08853 23.9386 5.26626 24.1045 5.3463C24.2422 5.41339 24.3387 5.54875 24.3999 5.76061C24.4281 5.85595 24.447 5.96777 24.4564 6.09253C24.5176 6.82228 24.2399 7.79803 24.0775 8.05932C24.0516 8.09817 23.8762 8.30886 23.3866 8.85264C22.0214 10.3698 19.384 13.1958 16.4394 16.169C12.8582 19.7848 8.08703 24.3552 5.69087 25.5969C5.50845 25.6923 5.41785 25.9041 5.47434 26.1007C5.512 26.2313 5.60612 26.3349 5.73322 26.3855C5.79442 26.409 5.85796 26.4185 5.92504 26.4138C6.92187 26.3361 7.90931 26.2419 8.86613 26.1336C8.79316 26.2019 8.72018 26.2713 8.64839 26.3396C3.97495 30.7358 0.789085 33.7572 0.126495 34.4198C0.00880536 34.5375 -0.0311929 34.7153 0.0252979 34.873C0.0323593 34.8906 0.039416 34.9095 0.0500081 34.9295C0.125329 35.0719 0.271294 35.1602 0.433705 35.1602C0.465481 35.1602 0.492515 35.1555 0.516053 35.1519C1.56584 34.9483 2.82866 34.5058 4.27153 33.836C8.07643 32.0705 12.2862 29.1174 13.9209 27.9298C14.2846 27.6649 14.5564 27.4613 14.687 27.3636C15.1743 27.4766 15.6885 27.5637 16.2181 27.6202C16.3052 27.7685 16.39 27.9121 16.4736 28.0533L16.5501 28.184C17.3974 29.6353 18.0035 30.7264 18.3907 31.4396C15.0307 31.1042 12.498 30.9983 12.3886 30.9947C12.1532 30.9877 11.9484 31.1725 11.9378 31.4102C11.9284 31.6491 12.1143 31.8528 12.3532 31.8622C12.4403 31.8657 21.1046 32.24 27.8812 33.7901C27.8906 33.7937 27.8988 33.7972 27.9071 33.7996C27.9353 33.8078 27.9635 33.8125 27.9859 33.8149C31.08 34.5305 33.2737 35.3815 34.5071 36.3443C34.5836 36.4043 34.6765 36.4361 34.773 36.4361C34.9072 36.4361 35.032 36.376 35.1155 36.2701C35.1873 36.1783 35.2179 36.0653 35.2038 35.95L35.1979 35.9476ZM24.986 13.8432C25.3614 13.8432 25.7051 13.9091 26.0052 14.0386C26.8973 14.4235 27.3857 15.3604 27.4175 16.7493C27.5316 21.9364 16.5936 24.1657 11.4094 24.9295C15.7333 20.8688 20.7527 16.1713 21.8531 15.1791C22.7805 14.3423 23.9515 13.8432 24.986 13.8432ZM20.981 23.5842C25.8887 21.8305 28.3448 19.5247 28.2836 16.7304C28.246 15.0037 27.5587 13.7643 26.3488 13.2429C24.8742 12.6062 22.8335 13.1252 21.2718 14.5353C20.1396 15.5569 14.5893 20.7511 9.92648 25.1332C9.15797 25.2309 8.37889 25.3179 7.60332 25.3945C10.4726 23.3029 14.7318 19.1468 17.8717 15.9501C21.4589 12.2989 24.6035 8.85264 24.8095 8.51954C25.0507 8.12877 25.5462 6.61395 25.2296 5.51932C25.2249 5.50167 25.2191 5.48401 25.2144 5.46753C25.4168 5.56758 25.558 5.73236 25.6356 5.9607C25.6992 6.14785 25.8816 6.26908 26.0805 6.25378C26.2782 6.2373 26.4395 6.09018 26.4724 5.89479C26.4748 5.88302 26.6737 4.65303 26.2311 3.38774C26.0876 2.97578 25.891 2.60267 25.6451 2.27428C25.9334 2.38374 26.2088 2.51204 26.4665 2.65799C26.9079 2.90634 27.3021 3.20766 27.6363 3.5537C27.7223 3.64198 27.8435 3.69023 27.9671 3.68553C28.0906 3.67964 28.206 3.62079 28.2836 3.52545C28.4107 3.36891 28.5249 3.04876 28.3437 2.40846C28.2531 2.08361 28.093 1.7046 27.8694 1.2797C29.9066 2.32018 33.3478 5.02144 33.5102 7.14007C33.5232 7.30015 33.6221 7.44022 33.7692 7.50377C33.7868 7.51201 35.4933 8.27001 36.6125 9.70127C36.3265 9.78601 36.0229 9.87429 35.704 9.9661C33.8774 10.4887 32.5746 10.7982 32.2015 10.7982C32.1945 10.7982 32.1886 10.7982 32.1827 10.7982C32.0603 10.7947 31.9461 10.8418 31.8602 10.9277C31.7755 11.0148 31.7308 11.1325 31.7367 11.2443C31.7367 11.2455 31.7367 11.2655 31.739 11.3008C31.7426 11.3997 31.752 11.6363 31.7637 11.9788C31.7779 12.3966 31.7979 13.0699 31.8108 13.9162V13.9209C31.8355 15.4899 31.8767 18.1146 29.8242 21.455C29.61 21.8045 29.3323 22.1565 28.998 22.5037C27.7788 23.7761 25.8816 24.9236 23.6561 25.7334C20.5656 26.8587 17.2973 27.1294 14.6882 26.475C14.5728 26.4432 14.4234 26.4691 14.3175 26.5503C14.2433 26.6068 7.08079 32.0411 1.96131 33.8466C3.57483 32.3047 6.56413 29.4811 10.3125 25.9583C14.4658 25.4145 18.153 24.5941 20.9763 23.5854L20.981 23.5842ZM20.9104 27.3907C20.941 27.4554 20.9775 27.5178 21.0187 27.579C21.3965 28.1381 22.1897 28.5359 23.1077 28.9961L23.1194 29.002C24.2045 29.5458 25.4356 30.1614 26.3983 31.1866C27.2032 32.0434 27.521 32.559 27.6458 32.8403C25.3061 32.3224 22.5428 31.8881 19.4252 31.5491C19.2074 31.1371 18.5519 29.9177 17.4574 28.0322C17.3927 27.9215 17.3268 27.8073 17.2585 27.692C18.4366 27.7297 19.6617 27.6296 20.9081 27.3919L20.9104 27.3907Z" fill="#FF4D4D"/>
<path d="M36.2842 30.5345C36.0912 30.4921 31.5554 29.547 30.1349 32.7508C30.0819 32.8685 30.0843 33.0027 30.1396 33.1157C30.1479 33.1334 30.1585 33.151 30.1679 33.1663C30.2279 33.2581 30.3209 33.3229 30.4303 33.3499C30.5739 33.3841 31.3389 33.5512 32.3122 33.5512C32.5322 33.5512 32.7559 33.5418 32.9759 33.5241C33.6173 33.4688 34.1964 33.3299 34.6942 33.1098C35.6193 32.7026 36.2595 32.0293 36.5961 31.1077C36.6396 30.99 36.6302 30.8594 36.569 30.7487C36.5078 30.6404 36.4043 30.5616 36.2819 30.5345H36.2842ZM35.5463 31.2996C35.5098 31.3572 35.4721 31.4126 35.4333 31.4655C35.0802 31.9422 33.9716 32.9874 31.2106 32.6061C31.3895 32.3577 31.6084 32.1423 31.8662 31.9622C33.0231 31.1501 34.7036 31.2066 35.5475 31.2996H35.5463Z" fill="#FF4D4D"/>
<path d="M12.3862 32.001C12.2638 31.9963 12.1402 32.0446 12.0543 32.1341C11.9672 32.2247 11.9237 32.3483 11.9355 32.473C11.946 32.5919 12.2085 35.3885 14.0503 36.5314C14.4469 36.7774 14.8918 36.9304 15.3696 36.9857C15.3872 36.9881 15.4049 36.9904 15.4249 36.9904C15.5344 36.9904 15.6438 36.9469 15.725 36.8692C15.7744 36.821 15.8121 36.7621 15.8345 36.6985C15.8533 36.6432 15.8615 36.5855 15.8568 36.522C15.8427 36.3384 15.7509 35.3756 15.3414 34.381C14.7282 32.8874 13.7067 32.0646 12.3874 32.0022L12.3862 32.001ZM14.9048 35.9864C13.6419 35.5003 13.1194 33.9737 12.917 33.0768C12.9076 33.038 12.8993 33.0003 12.8911 32.9615C13.2324 33.0686 13.5407 33.264 13.8091 33.5441C14.4775 34.2386 14.7753 35.2979 14.9048 35.9864Z" fill="#FF4D4D"/>
<path d="M11.3565 31.5032H11.3541C11.2011 31.5032 10.3938 31.5232 9.52522 31.8045C8.33303 32.1906 7.57509 32.905 7.33147 33.8702C7.30087 33.9937 7.27853 34.1197 7.26441 34.2445C7.25029 34.368 7.2903 34.4928 7.37503 34.587C7.45742 34.6764 7.5739 34.7282 7.69512 34.7282H7.70575C7.79754 34.7259 8.62721 34.6976 9.51694 34.3845C10.7974 33.9361 11.5812 33.1169 11.7825 32.0164C11.806 31.8904 11.7719 31.761 11.6895 31.6597C11.6059 31.5609 11.4847 31.5044 11.3565 31.5044V31.5032ZM10.7315 32.4236C10.6974 32.4872 10.6585 32.5484 10.6173 32.6072C10.0666 33.3864 8.99443 33.6842 8.2777 33.7984C8.4307 33.47 8.69313 33.191 9.06032 32.9674L9.07681 32.9568C9.61936 32.6308 10.2796 32.4872 10.7327 32.4236H10.7315Z" fill="#FF4D4D"/>
<path d="M30.5963 34.9836C30.481 34.9695 30.3621 35.0036 30.2703 35.0777C30.1797 35.1519 30.122 35.2614 30.1114 35.3779C30.1055 35.4497 29.969 37.1658 30.6034 38.7159C30.7975 39.1914 31.047 39.6069 31.3459 39.9518C31.9956 40.7004 32.8677 41.1135 33.9469 41.1782H33.9645C34.0716 41.1782 34.1729 41.1394 34.2517 41.07C34.3388 40.9946 34.3917 40.8852 34.3976 40.771C34.3976 40.758 34.4765 39.4763 34.0611 38.1239C33.495 36.2783 32.298 35.1931 30.5974 34.9848L30.5963 34.9836ZM33.5302 40.2531C32.9112 40.1319 32.3981 39.84 32.0015 39.3845C31.2789 38.5511 31.0505 37.3282 30.987 36.449C30.9741 36.2795 30.967 36.1076 30.9646 35.9346C32.0568 36.2253 32.817 37.0422 33.2266 38.364C33.269 38.5005 33.3067 38.6429 33.3431 38.8007C33.4714 39.3562 33.5173 39.8753 33.5302 40.2531Z" fill="#FF4D4D"/>
<path d="M41.1648 39.9754C41.1506 39.9342 40.7446 38.7384 39.8584 37.6496C38.6403 36.1524 37.1221 35.5969 35.4698 36.043C35.3568 36.0724 35.2591 36.1489 35.2026 36.2525C35.1461 36.3549 35.1332 36.4785 35.1685 36.5903C35.1897 36.6597 35.7099 38.3017 36.8785 39.4987C37.2375 39.8659 37.6247 40.1567 38.0307 40.365C38.5309 40.6204 39.0582 40.7487 39.6066 40.7487C40.0256 40.7487 40.4587 40.6734 40.9012 40.5239L40.9176 40.5168C41.0165 40.4768 41.0965 40.4027 41.1424 40.3085C41.1942 40.2061 41.2024 40.0849 41.1648 39.9766V39.9754ZM40.1691 39.8236C39.5501 39.9436 38.964 39.8671 38.4261 39.5929C37.4434 39.0926 36.7726 38.0451 36.3819 37.2541C36.3065 37.1023 36.2348 36.9446 36.1677 36.7857C37.2881 36.6456 38.3002 37.1152 39.177 38.1863C39.2664 38.2958 39.3559 38.4147 39.4501 38.5477C39.7772 39.0138 40.0149 39.4775 40.1691 39.8236Z" fill="#FF4D4D"/>
</svg>
